<svg id="svg" fill="#31006f" stroke="#31006f" width="200" height="200" version="1.1" viewBox="144 144 512 512" xmlns="http://www.w3.org/2000/svg">
    <g id="IconSvg_bgCarrier" stroke-width="0"></g>
    <g id="IconSvg_tracerCarrier" stroke-linecap="round" stroke-linejoin="round" stroke="#CCCCCC" stroke-width="0">
      <g xmlns="http://www.w3.org/2000/svg">
  <path d="m596.8 226.81h-23.617c-0.011719-1.6406-0.53516-3.2344-1.4961-4.5625l-39.359-55.105c-1.4688-2.0664-3.8438-3.2969-6.3789-3.3086h-212.54c-10.438 0-20.449 4.1484-27.832 11.531-7.3828 7.3789-11.527 17.391-11.527 27.832v23.617l-23.617-0.003906c-10.438 0-20.449 4.1484-27.832 11.531-7.3789 7.3789-11.527 17.391-11.527 27.832v157.68c-30.895 23.152-48.5 59.961-47.133 98.543 1.3633 38.586 21.531 74.055 53.984 94.965 32.457 20.91 73.09 24.609 108.79 9.9062 0.42578 0.66016 0.89844 1.293 1.4141 1.8867 4.418 4.5 10.465 7.0273 16.77 7.0078h157.44c6.2578-0.019531 12.254-2.5156 16.676-6.9375 4.4258-4.4258 6.9219-10.422 6.9375-16.68 0-6.2617-2.4883-12.27-6.9141-16.699-4.4297-4.4297-10.438-6.918-16.699-6.918h-8.8164l-5.9023-47.23h109.18c10.438 0 20.449-4.1484 27.832-11.527 7.3789-7.3828 11.527-17.395 11.527-27.832v-236.16c0-10.441-4.1484-20.453-11.527-27.832-7.3828-7.3828-17.395-11.531-27.832-11.531zm-78.723-47.23h3.8555l28.102 39.359h-24.086c-4.3477 0-7.8711-3.5234-7.8711-7.8711zm-228.29 23.617c0.019532-6.2578 2.5156-12.254 6.9375-16.68 4.4258-4.4258 10.422-6.918 16.68-6.9375h188.93v31.488c0.015624 6.2578 2.5117 12.254 6.9375 16.68 4.4258 4.4219 10.418 6.918 16.676 6.9375h31.488v228.29h-171.14c-19.172-36.156-55.68-59.828-96.512-62.586zm-62.977 62.977c0.019531-6.2578 2.5156-12.254 6.9375-16.68 4.4258-4.4258 10.422-6.918 16.68-6.9375h23.617v157.83c-16.508 1.0469-32.605 5.582-47.234 13.305zm55.105 354.24v-0.003907c-27.141 0-53.172-10.781-72.363-29.973-19.191-19.191-29.973-45.223-29.973-72.363s10.781-53.172 29.973-72.363c19.191-19.191 45.223-29.973 72.363-29.973s53.172 10.781 72.363 29.973 29.973 45.223 29.973 72.363c-0.023437 27.133-10.812 53.148-30 72.336s-45.203 29.977-72.336 30zm115.72-78.723h74.156l5.9023 47.23h-101.55c10.609-13.938 17.953-30.078 21.492-47.23zm104.7 62.977c2.125-0.019531 4.1562 0.86719 5.5898 2.4414 1.4883 1.4062 2.3164 3.3789 2.2812 5.4297 0 2.0898-0.82812 4.0898-2.3047 5.5664-1.4766 1.4766-3.4805 2.3047-5.5664 2.3047h-157.44c-1.0898 0-2.1641-0.24219-3.1484-0.70703 7.2148-4.3047 13.969-9.3438 20.152-15.035zm118.08-102.34c-0.015624 6.2578-2.5117 12.254-6.9375 16.676-4.4258 4.4258-10.418 6.9219-16.676 6.9375h-197.2c0.15625-2.5977 0.39453-5.1953 0.39453-7.8711-0.027344-13.422-2.3711-26.734-6.9297-39.359h227.34zm0-39.359h-47.23v-220.42h23.617c6.2578 0.019531 12.25 2.5117 16.676 6.9375 4.4258 4.4258 6.9219 10.422 6.9375 16.68z"></path>
  <path d="m573.18 494.46h15.742v15.742h-15.742z"></path>
  <path d="m321.28 211.07h15.742v15.742h-15.742z"></path>
  <path d="m352.77 211.07h94.465v15.742h-94.465z"></path>
  <path d="m321.28 242.56h125.95v15.742h-125.95z"></path>
  <path d="m321.28 274.05h204.67v15.742h-204.67z"></path>
  <path d="m321.28 305.54h204.67v15.742h-204.67z"></path>
  <path d="m321.28 337.02h204.67v15.742h-204.67z"></path>
  <path d="m321.28 368.51h204.67v15.742h-204.67z"></path>
  <path d="m368.51 400h157.44v15.742h-157.44z"></path>
  <path d="m281.92 431.49c-22.965 0-44.992 9.1211-61.23 25.359-16.238 16.242-25.363 38.266-25.363 61.23s9.125 44.992 25.363 61.23c16.238 16.238 38.266 25.363 61.23 25.363 22.965 0 44.992-9.125 61.23-25.363 16.238-16.238 25.363-38.266 25.363-61.23-0.027344-22.957-9.1602-44.965-25.395-61.199-16.23-16.234-38.242-25.363-61.199-25.391zm70.383 94.465v-0.003906c-1.4844 13.285-6.7148 25.875-15.082 36.301l-10.77-10.77-11.133 11.133 10.77 10.77 0.003906-0.003906c-10.426 8.3672-23.016 13.598-36.301 15.082v-15.277h-15.742v15.281-0.003906c-13.285-1.4844-25.875-6.7148-36.297-15.082l10.77-10.77-11.133-11.133-10.77 10.773c-8.3672-10.426-13.598-23.016-15.082-36.301h15.277v-15.742h-15.277c1.4844-13.285 6.7148-25.875 15.082-36.297l10.77 10.77 11.133-11.133-10.77-10.77c10.422-8.3672 23.012-13.598 36.297-15.082v15.281h15.742v-15.281c13.285 1.4844 25.875 6.7148 36.301 15.082l-10.77 10.77 11.133 11.133 10.77-10.77h-0.003906c8.3672 10.422 13.598 23.012 15.082 36.297h-15.277v15.742z"></path>
  <path d="m274.05 514.82-13.438 13.438 11.133 11.133 15.742-15.742v-0.003907c1.4766-1.4766 2.3047-3.4766 2.3047-5.5664v-39.359h-15.742z"></path>
 </g>

      </g>
     <g id="IconSvg_iconCarrier">
      <g xmlns="http://www.w3.org/2000/svg">
  <path d="m596.8 226.81h-23.617c-0.011719-1.6406-0.53516-3.2344-1.4961-4.5625l-39.359-55.105c-1.4688-2.0664-3.8438-3.2969-6.3789-3.3086h-212.54c-10.438 0-20.449 4.1484-27.832 11.531-7.3828 7.3789-11.527 17.391-11.527 27.832v23.617l-23.617-0.003906c-10.438 0-20.449 4.1484-27.832 11.531-7.3789 7.3789-11.527 17.391-11.527 27.832v157.68c-30.895 23.152-48.5 59.961-47.133 98.543 1.3633 38.586 21.531 74.055 53.984 94.965 32.457 20.91 73.09 24.609 108.79 9.9062 0.42578 0.66016 0.89844 1.293 1.4141 1.8867 4.418 4.5 10.465 7.0273 16.77 7.0078h157.44c6.2578-0.019531 12.254-2.5156 16.676-6.9375 4.4258-4.4258 6.9219-10.422 6.9375-16.68 0-6.2617-2.4883-12.27-6.9141-16.699-4.4297-4.4297-10.438-6.918-16.699-6.918h-8.8164l-5.9023-47.23h109.18c10.438 0 20.449-4.1484 27.832-11.527 7.3789-7.3828 11.527-17.395 11.527-27.832v-236.16c0-10.441-4.1484-20.453-11.527-27.832-7.3828-7.3828-17.395-11.531-27.832-11.531zm-78.723-47.23h3.8555l28.102 39.359h-24.086c-4.3477 0-7.8711-3.5234-7.8711-7.8711zm-228.29 23.617c0.019532-6.2578 2.5156-12.254 6.9375-16.68 4.4258-4.4258 10.422-6.918 16.68-6.9375h188.93v31.488c0.015624 6.2578 2.5117 12.254 6.9375 16.68 4.4258 4.4219 10.418 6.918 16.676 6.9375h31.488v228.29h-171.14c-19.172-36.156-55.68-59.828-96.512-62.586zm-62.977 62.977c0.019531-6.2578 2.5156-12.254 6.9375-16.68 4.4258-4.4258 10.422-6.918 16.68-6.9375h23.617v157.83c-16.508 1.0469-32.605 5.582-47.234 13.305zm55.105 354.24v-0.003907c-27.141 0-53.172-10.781-72.363-29.973-19.191-19.191-29.973-45.223-29.973-72.363s10.781-53.172 29.973-72.363c19.191-19.191 45.223-29.973 72.363-29.973s53.172 10.781 72.363 29.973 29.973 45.223 29.973 72.363c-0.023437 27.133-10.812 53.148-30 72.336s-45.203 29.977-72.336 30zm115.72-78.723h74.156l5.9023 47.23h-101.55c10.609-13.938 17.953-30.078 21.492-47.23zm104.7 62.977c2.125-0.019531 4.1562 0.86719 5.5898 2.4414 1.4883 1.4062 2.3164 3.3789 2.2812 5.4297 0 2.0898-0.82812 4.0898-2.3047 5.5664-1.4766 1.4766-3.4805 2.3047-5.5664 2.3047h-157.44c-1.0898 0-2.1641-0.24219-3.1484-0.70703 7.2148-4.3047 13.969-9.3438 20.152-15.035zm118.08-102.34c-0.015624 6.2578-2.5117 12.254-6.9375 16.676-4.4258 4.4258-10.418 6.9219-16.676 6.9375h-197.2c0.15625-2.5977 0.39453-5.1953 0.39453-7.8711-0.027344-13.422-2.3711-26.734-6.9297-39.359h227.34zm0-39.359h-47.23v-220.42h23.617c6.2578 0.019531 12.25 2.5117 16.676 6.9375 4.4258 4.4258 6.9219 10.422 6.9375 16.68z"></path>
  <path d="m573.18 494.46h15.742v15.742h-15.742z"></path>
  <path d="m321.28 211.07h15.742v15.742h-15.742z"></path>
  <path d="m352.77 211.07h94.465v15.742h-94.465z"></path>
  <path d="m321.28 242.56h125.95v15.742h-125.95z"></path>
  <path d="m321.28 274.05h204.67v15.742h-204.67z"></path>
  <path d="m321.28 305.54h204.67v15.742h-204.67z"></path>
  <path d="m321.28 337.02h204.67v15.742h-204.67z"></path>
  <path d="m321.28 368.51h204.67v15.742h-204.67z"></path>
  <path d="m368.51 400h157.44v15.742h-157.44z"></path>
  <path d="m281.92 431.49c-22.965 0-44.992 9.1211-61.23 25.359-16.238 16.242-25.363 38.266-25.363 61.23s9.125 44.992 25.363 61.23c16.238 16.238 38.266 25.363 61.23 25.363 22.965 0 44.992-9.125 61.23-25.363 16.238-16.238 25.363-38.266 25.363-61.23-0.027344-22.957-9.1602-44.965-25.395-61.199-16.23-16.234-38.242-25.363-61.199-25.391zm70.383 94.465v-0.003906c-1.4844 13.285-6.7148 25.875-15.082 36.301l-10.77-10.77-11.133 11.133 10.77 10.77 0.003906-0.003906c-10.426 8.3672-23.016 13.598-36.301 15.082v-15.277h-15.742v15.281-0.003906c-13.285-1.4844-25.875-6.7148-36.297-15.082l10.77-10.77-11.133-11.133-10.77 10.773c-8.3672-10.426-13.598-23.016-15.082-36.301h15.277v-15.742h-15.277c1.4844-13.285 6.7148-25.875 15.082-36.297l10.77 10.77 11.133-11.133-10.77-10.77c10.422-8.3672 23.012-13.598 36.297-15.082v15.281h15.742v-15.281c13.285 1.4844 25.875 6.7148 36.301 15.082l-10.77 10.77 11.133 11.133 10.77-10.77h-0.003906c8.3672 10.422 13.598 23.012 15.082 36.297h-15.277v15.742z"></path>
  <path d="m274.05 514.82-13.438 13.438 11.133 11.133 15.742-15.742v-0.003907c1.4766-1.4766 2.3047-3.4766 2.3047-5.5664v-39.359h-15.742z"></path>
 </g>

      </g>
      </svg>